<svg preserveAspectRatio="none" width="100%" height="100%" overflow="visible" style="display: block;" viewBox="0 0 28 28" fill="none" xmlns="http://www.w3.org/2000/svg">
<g id="Group">
<g id="Rectangle 34624511">
</g>
<path id="Vector" d="M23.4371 2.14391C24.5968 2.14391 25.5365 3.08383 25.5367 4.24352V23.4183C25.5366 24.5781 24.5968 25.5179 23.4371 25.5179H4.58159C3.42194 25.5178 2.48205 24.578 2.48198 23.4183V4.24352C2.4821 3.08391 3.42197 2.14403 4.58159 2.14391H23.4371ZM6.07182 3.76012C4.98231 3.76012 4.09819 4.64425 4.09819 5.73375V21.8754C4.09819 22.9649 4.98231 23.848 6.07182 23.848H21.9478C23.0372 23.8479 23.9205 22.9648 23.9205 21.8754V5.73375C23.9205 4.64433 23.0372 3.76026 21.9478 3.76012H6.07182Z" fill="#766839" stroke="#766839" stroke-width="0.127273"/>
<path id="Vector_2" d="M15.7581 10.4892C16.0274 10.4915 16.2604 10.4946 16.4378 10.4999C16.6124 10.5052 16.7397 10.5126 16.7923 10.5224C17.1042 10.5791 17.4062 10.7982 17.5746 11.0839L17.6087 11.1474C17.6803 11.2989 17.6974 11.492 17.7113 12.0087L17.7162 12.4716C17.7115 12.8904 17.674 13.1899 17.5531 13.4687C17.3923 13.8392 17.0869 14.1665 16.5433 14.6942L15.7708 15.4452L16.474 16.1132C17.0332 16.6433 17.3483 16.9693 17.5199 17.3261C17.6925 17.6852 17.7171 18.0705 17.7171 18.7079C17.7171 19.1381 17.7025 19.4144 17.6497 19.62C17.5956 19.8309 17.502 19.966 17.3529 20.1151C17.2787 20.1894 17.2165 20.2541 17.1185 20.3017C17.0212 20.3489 16.8926 20.3773 16.6859 20.3954C16.2732 20.4316 15.5172 20.4283 13.9984 20.4257C13.1844 20.4257 12.4684 20.4204 11.9466 20.411C11.6859 20.4064 11.473 20.401 11.3206 20.3944C11.2447 20.3912 11.1833 20.3874 11.138 20.3837C11.1154 20.3818 11.0957 20.38 11.0804 20.3778C11.0679 20.3761 11.0508 20.3737 11.0374 20.3681V20.3671C10.7959 20.2683 10.6149 20.1085 10.4837 19.8759L10.43 19.7724C10.365 19.6341 10.3285 19.5453 10.3128 19.3847C10.2977 19.2295 10.3022 19.005 10.3128 18.5946C10.3287 17.9793 10.3398 17.6452 10.4828 17.3368C10.6249 17.0304 10.8956 16.7525 11.4056 16.2372C11.7718 15.8666 12.0905 15.5429 12.1976 15.4345C12.1913 15.427 12.1845 15.4177 12.1761 15.4081C12.1379 15.3646 12.0803 15.3029 12.0081 15.2275C11.936 15.152 11.8495 15.0631 11.7523 14.9657L11.433 14.6523C10.9175 14.15 10.6402 13.8724 10.4925 13.5653C10.381 13.3334 10.3445 13.0868 10.3265 12.7226L10.3128 12.3153C10.3048 12.0567 10.3042 11.8386 10.3109 11.6679C10.3175 11.4993 10.3311 11.3713 10.3519 11.2968L10.3529 11.2939C10.3991 11.1496 10.5017 10.9901 10.6205 10.8583C10.7384 10.7274 10.8811 10.6145 11.0111 10.5722C11.0338 10.5649 11.0754 10.5598 11.1234 10.5556C11.1748 10.5511 11.2428 10.547 11.3246 10.5429C11.4886 10.5347 11.7106 10.5271 11.971 10.5204C12.4922 10.507 13.1696 10.4968 13.8509 10.4911C14.5324 10.4855 15.219 10.4846 15.7581 10.4892ZM14.2396 11.8671C13.2513 11.8678 12.2339 11.8798 12.0111 11.9032H12.0091L11.7054 11.9296V12.3827C11.7054 12.6857 11.719 12.8299 11.7513 12.9198L11.7904 12.995L11.7913 12.997C11.7994 13.0095 11.8297 13.0441 11.8831 13.1005C11.9346 13.1548 12.0034 13.2253 12.0853 13.3066L12.6859 13.8847C12.9097 14.0978 13.1264 14.3102 13.2933 14.4804C13.3765 14.5653 13.4482 14.6406 13.5023 14.7001C13.5529 14.7559 13.5917 14.8035 13.6097 14.8329H13.6107C13.6448 14.8858 13.6764 14.9657 13.7015 15.0497C13.7142 15.0924 13.7259 15.1374 13.7357 15.1825L13.7591 15.3163V15.3173C13.774 15.4391 13.7788 15.5468 13.7601 15.6532C13.7412 15.7606 13.6982 15.8628 13.6234 15.9775C13.4761 16.2031 13.1976 16.4847 12.7074 16.9511L12.7064 16.9501C12.4731 17.1728 12.2516 17.3966 12.0824 17.5751C11.9976 17.6645 11.9265 17.7425 11.8744 17.8036C11.8483 17.8342 11.8273 17.8601 11.8119 17.8808C11.7955 17.9026 11.7877 17.9149 11.7855 17.9198L11.7845 17.9218C11.7331 18.0295 11.7054 18.2284 11.7054 18.58V19.0273H16.3128V18.415C16.3098 18.1868 16.2928 18.059 16.2113 17.9159C16.1557 17.8187 16.069 17.7121 15.929 17.5653C15.7891 17.4185 15.5994 17.2346 15.3421 16.9814V16.9804C14.8733 16.5195 14.5979 16.2372 14.4408 16.0243C14.3616 15.917 14.3096 15.8248 14.2787 15.7343C14.2476 15.6432 14.2386 15.5566 14.2386 15.4628C14.2386 15.3476 14.2423 15.2487 14.266 15.1523C14.29 15.0548 14.3333 14.9627 14.4066 14.8573C14.5506 14.6502 14.8186 14.3835 15.306 13.912C15.5642 13.6605 15.7556 13.4735 15.8988 13.3232C16.0421 13.1725 16.1339 13.0607 16.1937 12.9608C16.3101 12.7664 16.3102 12.6094 16.3128 12.2499L16.3099 12.0448C16.3073 11.9933 16.3031 11.961 16.2972 11.9403C16.2918 11.9215 16.2859 11.9157 16.2826 11.913C16.2771 11.9086 16.2674 11.9037 16.2435 11.8964C16.243 11.8963 16.2415 11.8957 16.2396 11.8954C16.2367 11.895 16.2328 11.895 16.2279 11.8944C16.2174 11.8933 16.2032 11.8917 16.1859 11.8905C16.1511 11.8883 16.1039 11.8867 16.0462 11.8847C15.9308 11.8807 15.7736 11.8775 15.5882 11.8749C15.2173 11.8697 14.7328 11.8668 14.2396 11.8671Z" fill="#766839" stroke="#766839" stroke-width="0.127273"/>
<path id="Vector_3" d="M19.1433 6.78738C19.5602 6.78755 19.8981 7.12535 19.8982 7.54226C19.8982 7.95924 19.5602 8.29697 19.1433 8.29714H8.98216C8.56514 8.29706 8.22727 7.95929 8.22727 7.54226C8.22736 7.1253 8.5652 6.78746 8.98216 6.78738H19.1433Z" fill="#766839" stroke="#766839" stroke-width="0.127273"/>
</g>
</svg>
