<svg preserveAspectRatio="none" width="100%" height="100%" overflow="visible" style="display: block;" viewBox="0 0 40 40" fill="none" xmlns="http://www.w3.org/2000/svg">
<g id="touxiang-3">
<path id="&#232;&#183;&#175;&#229;&#190;&#132;" d="M0 20C0 31.0458 8.9542 40 20 40C31.0458 40 40 31.0458 40 20C40 8.9544 31.0458 0 20 0C8.9542 0 0 8.9544 0 20Z" fill="#BED4F9"/>
<path id="&#232;&#183;&#175;&#229;&#190;&#132;_2" d="M34.4179 33.523C31.4905 31.6739 26.8845 30.0556 26.4171 29.8209C25.9149 29.5692 23.4888 28.8141 23.4053 26.8848C23.332 25.2005 24.9518 24.5697 26.4171 22.7737C27.4212 20.816 28.7596 16.1461 27.421 11.8675C25.1622 6.66586 19.8916 6.66667 19.8916 6.66667L19.7243 6.73331L19.5571 6.66667C19.5571 6.66667 14.2865 6.66566 12.0277 11.8675C10.6888 16.1461 12.0281 21.0677 13.0316 22.7737C14.4971 24.5697 16.1164 25.2005 16.0433 26.8848C15.9596 28.8141 13.5335 29.5692 13.0316 29.8209C12.5642 30.0556 7.95796 31.6739 5.03052 33.523C5.01887 33.5313 5.01104 33.5396 5 33.5478C8.66673 37.5146 13.905 40 19.7245 40C25.5413 40 30.7775 37.5166 34.4444 33.5532C34.4344 33.5436 34.4278 33.5329 34.4179 33.523Z" fill="#F5F5F9"/>
</g>
</svg>
